<mxfile host="app.diagrams.net" modified="2023-06-09T09:25:47.899Z" agent="Mozilla/5.0 (X11; Linux x86_64) AppleWebKit/537.36 (KHTML, like Gecko) Chrome/113.0.0.0 Safari/537.36" etag="AhCIhhRVSkSRv7-Bnyzt" version="21.3.8" type="github">
  <diagram name="Page-1" id="5xmp5UdEsxfD9INuU4Cq">
    <mxGraphModel dx="1950" dy="2814" grid="1" gridSize="10" guides="1" tooltips="1" connect="1" arrows="1" fold="1" page="1" pageScale="1" pageWidth="850" pageHeight="1100" math="0" shadow="0">
      <root>
        <mxCell id="0" />
        <mxCell id="1" parent="0" />
        <mxCell id="q3vog-fZis95d_C_QXHH-101" style="edgeStyle=orthogonalEdgeStyle;rounded=0;orthogonalLoop=1;jettySize=auto;html=1;exitX=1;exitY=0.25;exitDx=0;exitDy=0;entryX=0.5;entryY=0;entryDx=0;entryDy=0;" parent="1" source="q3vog-fZis95d_C_QXHH-1" target="q3vog-fZis95d_C_QXHH-35" edge="1">
          <mxGeometry relative="1" as="geometry" />
        </mxCell>
        <mxCell id="q3vog-fZis95d_C_QXHH-102" style="edgeStyle=orthogonalEdgeStyle;rounded=0;orthogonalLoop=1;jettySize=auto;html=1;exitX=1;exitY=0.5;exitDx=0;exitDy=0;entryX=0.5;entryY=0;entryDx=0;entryDy=0;" parent="1" source="q3vog-fZis95d_C_QXHH-1" target="q3vog-fZis95d_C_QXHH-32" edge="1">
          <mxGeometry relative="1" as="geometry" />
        </mxCell>
        <mxCell id="q3vog-fZis95d_C_QXHH-103" style="edgeStyle=orthogonalEdgeStyle;rounded=0;orthogonalLoop=1;jettySize=auto;html=1;exitX=0.5;exitY=1;exitDx=0;exitDy=0;entryX=0.5;entryY=0;entryDx=0;entryDy=0;" parent="1" source="q3vog-fZis95d_C_QXHH-1" target="q3vog-fZis95d_C_QXHH-28" edge="1">
          <mxGeometry relative="1" as="geometry" />
        </mxCell>
        <mxCell id="q3vog-fZis95d_C_QXHH-104" style="edgeStyle=orthogonalEdgeStyle;rounded=0;orthogonalLoop=1;jettySize=auto;html=1;exitX=0;exitY=0.5;exitDx=0;exitDy=0;entryX=0.5;entryY=0;entryDx=0;entryDy=0;" parent="1" source="q3vog-fZis95d_C_QXHH-1" target="q3vog-fZis95d_C_QXHH-17" edge="1">
          <mxGeometry relative="1" as="geometry" />
        </mxCell>
        <mxCell id="q3vog-fZis95d_C_QXHH-105" style="edgeStyle=orthogonalEdgeStyle;rounded=0;orthogonalLoop=1;jettySize=auto;html=1;exitX=0;exitY=0.25;exitDx=0;exitDy=0;entryX=0.5;entryY=0;entryDx=0;entryDy=0;" parent="1" source="q3vog-fZis95d_C_QXHH-1" target="q3vog-fZis95d_C_QXHH-11" edge="1">
          <mxGeometry relative="1" as="geometry" />
        </mxCell>
        <mxCell id="q3vog-fZis95d_C_QXHH-1" value="Check security features" style="rounded=0;whiteSpace=wrap;html=1;" parent="1" vertex="1">
          <mxGeometry x="260" y="-730" width="120" height="60" as="geometry" />
        </mxCell>
        <mxCell id="q3vog-fZis95d_C_QXHH-44" style="edgeStyle=orthogonalEdgeStyle;rounded=0;orthogonalLoop=1;jettySize=auto;html=1;exitX=0.5;exitY=1;exitDx=0;exitDy=0;entryX=0.5;entryY=0;entryDx=0;entryDy=0;" parent="1" source="q3vog-fZis95d_C_QXHH-2" target="q3vog-fZis95d_C_QXHH-3" edge="1">
          <mxGeometry relative="1" as="geometry" />
        </mxCell>
        <mxCell id="q3vog-fZis95d_C_QXHH-61" style="edgeStyle=orthogonalEdgeStyle;rounded=0;orthogonalLoop=1;jettySize=auto;html=1;exitX=0;exitY=0.5;exitDx=0;exitDy=0;entryX=1;entryY=0.5;entryDx=0;entryDy=0;" parent="1" source="q3vog-fZis95d_C_QXHH-2" target="q3vog-fZis95d_C_QXHH-4" edge="1">
          <mxGeometry relative="1" as="geometry" />
        </mxCell>
        <mxCell id="q3vog-fZis95d_C_QXHH-62" style="edgeStyle=orthogonalEdgeStyle;rounded=0;orthogonalLoop=1;jettySize=auto;html=1;exitX=1;exitY=0.5;exitDx=0;exitDy=0;entryX=0;entryY=0.5;entryDx=0;entryDy=0;" parent="1" source="q3vog-fZis95d_C_QXHH-2" target="q3vog-fZis95d_C_QXHH-41" edge="1">
          <mxGeometry relative="1" as="geometry" />
        </mxCell>
        <mxCell id="q3vog-fZis95d_C_QXHH-2" value="Static Analysis" style="rounded=0;whiteSpace=wrap;html=1;" parent="1" vertex="1">
          <mxGeometry x="260" y="-1000" width="120" height="60" as="geometry" />
        </mxCell>
        <mxCell id="q3vog-fZis95d_C_QXHH-67" style="edgeStyle=orthogonalEdgeStyle;rounded=0;orthogonalLoop=1;jettySize=auto;html=1;exitX=0;exitY=0.5;exitDx=0;exitDy=0;entryX=0.5;entryY=0;entryDx=0;entryDy=0;" parent="1" source="q3vog-fZis95d_C_QXHH-3" target="q3vog-fZis95d_C_QXHH-6" edge="1">
          <mxGeometry relative="1" as="geometry" />
        </mxCell>
        <mxCell id="q3vog-fZis95d_C_QXHH-68" style="edgeStyle=orthogonalEdgeStyle;rounded=0;orthogonalLoop=1;jettySize=auto;html=1;exitX=1;exitY=0.5;exitDx=0;exitDy=0;" parent="1" source="q3vog-fZis95d_C_QXHH-3" target="q3vog-fZis95d_C_QXHH-46" edge="1">
          <mxGeometry relative="1" as="geometry" />
        </mxCell>
        <mxCell id="q3vog-fZis95d_C_QXHH-3" value="Fuzzing" style="rounded=0;whiteSpace=wrap;html=1;gradientColor=none;" parent="1" vertex="1">
          <mxGeometry x="260" y="-910" width="120" height="60" as="geometry" />
        </mxCell>
        <mxCell id="q3vog-fZis95d_C_QXHH-4" value="Displaying Function Names with Corresponding Addresses" style="rounded=0;whiteSpace=wrap;html=1;" parent="1" vertex="1">
          <mxGeometry x="80" y="-1000" width="120" height="60" as="geometry" />
        </mxCell>
        <mxCell id="q3vog-fZis95d_C_QXHH-6" value="Not vulnerable" style="rounded=0;whiteSpace=wrap;html=1;fillColor=#f8cecc;strokeColor=#b85450;" parent="1" vertex="1">
          <mxGeometry x="140" y="-820" width="120" height="60" as="geometry" />
        </mxCell>
        <mxCell id="q3vog-fZis95d_C_QXHH-38" style="edgeStyle=orthogonalEdgeStyle;rounded=0;orthogonalLoop=1;jettySize=auto;html=1;entryX=0.5;entryY=0;entryDx=0;entryDy=0;" parent="1" target="q3vog-fZis95d_C_QXHH-2" edge="1">
          <mxGeometry relative="1" as="geometry">
            <mxPoint x="320" y="-1030" as="sourcePoint" />
          </mxGeometry>
        </mxCell>
        <mxCell id="N7u-a9GKxDevNGdXpnSy-87" style="edgeStyle=orthogonalEdgeStyle;rounded=0;orthogonalLoop=1;jettySize=auto;html=1;exitX=0.5;exitY=1;exitDx=0;exitDy=0;entryX=0;entryY=0;entryDx=0;entryDy=0;" edge="1" parent="1" source="q3vog-fZis95d_C_QXHH-11" target="N7u-a9GKxDevNGdXpnSy-4">
          <mxGeometry relative="1" as="geometry" />
        </mxCell>
        <mxCell id="q3vog-fZis95d_C_QXHH-11" value="No sec" style="rounded=0;whiteSpace=wrap;html=1;" parent="1" vertex="1">
          <mxGeometry x="-100" y="-640" width="90" height="60" as="geometry" />
        </mxCell>
        <mxCell id="q3vog-fZis95d_C_QXHH-12" value="Return To Function" style="rounded=0;whiteSpace=wrap;html=1;" parent="1" vertex="1">
          <mxGeometry x="150" y="-440" width="120" height="60" as="geometry" />
        </mxCell>
        <mxCell id="q3vog-fZis95d_C_QXHH-13" value="Inject Shell Code" style="rounded=0;whiteSpace=wrap;html=1;" parent="1" vertex="1">
          <mxGeometry x="-50" y="-440" width="120" height="60" as="geometry" />
        </mxCell>
        <mxCell id="N7u-a9GKxDevNGdXpnSy-28" style="edgeStyle=orthogonalEdgeStyle;rounded=0;orthogonalLoop=1;jettySize=auto;html=1;exitX=0.5;exitY=1;exitDx=0;exitDy=0;entryX=0;entryY=0;entryDx=0;entryDy=0;" edge="1" parent="1" source="q3vog-fZis95d_C_QXHH-17" target="N7u-a9GKxDevNGdXpnSy-7">
          <mxGeometry relative="1" as="geometry" />
        </mxCell>
        <mxCell id="q3vog-fZis95d_C_QXHH-17" value="Nx Enabled" style="rounded=0;whiteSpace=wrap;html=1;" parent="1" vertex="1">
          <mxGeometry x="90" y="-640" width="90" height="60" as="geometry" />
        </mxCell>
        <mxCell id="q3vog-fZis95d_C_QXHH-22" value="Leaking Addresses" style="rounded=0;whiteSpace=wrap;html=1;" parent="1" vertex="1">
          <mxGeometry x="550" y="-440" width="120" height="60" as="geometry" />
        </mxCell>
        <mxCell id="q3vog-fZis95d_C_QXHH-23" value="Return To Libc" style="rounded=0;whiteSpace=wrap;html=1;" parent="1" vertex="1">
          <mxGeometry x="350" y="-440" width="120" height="60" as="geometry" />
        </mxCell>
        <mxCell id="N7u-a9GKxDevNGdXpnSy-70" style="edgeStyle=orthogonalEdgeStyle;rounded=0;orthogonalLoop=1;jettySize=auto;html=1;exitX=0.5;exitY=1;exitDx=0;exitDy=0;entryX=0;entryY=0;entryDx=0;entryDy=0;" edge="1" parent="1" source="q3vog-fZis95d_C_QXHH-28" target="N7u-a9GKxDevNGdXpnSy-9">
          <mxGeometry relative="1" as="geometry" />
        </mxCell>
        <mxCell id="q3vog-fZis95d_C_QXHH-28" value="Full Relro" style="rounded=0;whiteSpace=wrap;html=1;" parent="1" vertex="1">
          <mxGeometry x="275" y="-640" width="90" height="60" as="geometry" />
        </mxCell>
        <mxCell id="N7u-a9GKxDevNGdXpnSy-71" style="edgeStyle=orthogonalEdgeStyle;rounded=0;orthogonalLoop=1;jettySize=auto;html=1;exitX=0.5;exitY=1;exitDx=0;exitDy=0;entryX=0.5;entryY=0;entryDx=0;entryDy=0;" edge="1" parent="1" source="q3vog-fZis95d_C_QXHH-32" target="N7u-a9GKxDevNGdXpnSy-9">
          <mxGeometry relative="1" as="geometry" />
        </mxCell>
        <mxCell id="q3vog-fZis95d_C_QXHH-32" value="Stack Canary" style="rounded=0;whiteSpace=wrap;html=1;" parent="1" vertex="1">
          <mxGeometry x="470" y="-640" width="90" height="60" as="geometry" />
        </mxCell>
        <mxCell id="N7u-a9GKxDevNGdXpnSy-72" style="edgeStyle=orthogonalEdgeStyle;rounded=0;orthogonalLoop=1;jettySize=auto;html=1;exitX=0.5;exitY=1;exitDx=0;exitDy=0;entryX=0.975;entryY=0.32;entryDx=0;entryDy=0;entryPerimeter=0;" edge="1" parent="1" source="q3vog-fZis95d_C_QXHH-35" target="N7u-a9GKxDevNGdXpnSy-9">
          <mxGeometry relative="1" as="geometry" />
        </mxCell>
        <mxCell id="q3vog-fZis95d_C_QXHH-35" value="Pie" style="rounded=0;whiteSpace=wrap;html=1;" parent="1" vertex="1">
          <mxGeometry x="660" y="-640" width="90" height="60" as="geometry" />
        </mxCell>
        <mxCell id="q3vog-fZis95d_C_QXHH-41" value="Detecting Vulnerable Functions" style="rounded=0;whiteSpace=wrap;html=1;" parent="1" vertex="1">
          <mxGeometry x="440" y="-1000" width="120" height="60" as="geometry" />
        </mxCell>
        <mxCell id="q3vog-fZis95d_C_QXHH-96" style="edgeStyle=orthogonalEdgeStyle;rounded=0;orthogonalLoop=1;jettySize=auto;html=1;exitX=0;exitY=0.5;exitDx=0;exitDy=0;" parent="1" source="q3vog-fZis95d_C_QXHH-46" edge="1">
          <mxGeometry relative="1" as="geometry">
            <mxPoint x="320" y="-730" as="targetPoint" />
          </mxGeometry>
        </mxCell>
        <mxCell id="q3vog-fZis95d_C_QXHH-46" value="Vulnerable" style="rounded=0;whiteSpace=wrap;html=1;fillColor=#d5e8d4;strokeColor=#82b366;" parent="1" vertex="1">
          <mxGeometry x="380" y="-820" width="120" height="60" as="geometry" />
        </mxCell>
        <mxCell id="q3vog-fZis95d_C_QXHH-54" value="" style="shape=image;html=1;verticalAlign=top;verticalLabelPosition=bottom;labelBackgroundColor=#ffffff;imageAspect=0;aspect=fixed;image=https://cdn1.iconfinder.com/data/icons/nuvola2/128x128/mimetypes/binary.png" parent="1" vertex="1">
          <mxGeometry x="275" y="-1120" width="90" height="90" as="geometry" />
        </mxCell>
        <mxCell id="q3vog-fZis95d_C_QXHH-93" value="&lt;b&gt;Binary File&lt;/b&gt;" style="text;html=1;align=center;verticalAlign=middle;resizable=0;points=[];autosize=1;strokeColor=none;fillColor=none;" parent="1" vertex="1">
          <mxGeometry x="280" y="-1150" width="80" height="30" as="geometry" />
        </mxCell>
        <mxCell id="N7u-a9GKxDevNGdXpnSy-31" style="edgeStyle=orthogonalEdgeStyle;rounded=0;orthogonalLoop=1;jettySize=auto;html=1;exitX=1;exitY=0.5;exitDx=0;exitDy=0;entryX=0.25;entryY=0;entryDx=0;entryDy=0;" edge="1" parent="1" source="N7u-a9GKxDevNGdXpnSy-4" target="q3vog-fZis95d_C_QXHH-12">
          <mxGeometry relative="1" as="geometry" />
        </mxCell>
        <mxCell id="N7u-a9GKxDevNGdXpnSy-80" style="edgeStyle=orthogonalEdgeStyle;rounded=0;orthogonalLoop=1;jettySize=auto;html=1;exitX=0;exitY=0.5;exitDx=0;exitDy=0;entryX=0.583;entryY=0.017;entryDx=0;entryDy=0;entryPerimeter=0;" edge="1" parent="1" source="N7u-a9GKxDevNGdXpnSy-4" target="q3vog-fZis95d_C_QXHH-13">
          <mxGeometry relative="1" as="geometry" />
        </mxCell>
        <mxCell id="N7u-a9GKxDevNGdXpnSy-4" value="" style="ellipse;whiteSpace=wrap;html=1;fillColor=#d5e8d4;strokeColor=#82b366;" vertex="1" parent="1">
          <mxGeometry x="80" y="-530" width="50" height="50" as="geometry" />
        </mxCell>
        <mxCell id="N7u-a9GKxDevNGdXpnSy-6" style="edgeStyle=orthogonalEdgeStyle;rounded=0;orthogonalLoop=1;jettySize=auto;html=1;exitX=0.5;exitY=1;exitDx=0;exitDy=0;" edge="1" parent="1" source="N7u-a9GKxDevNGdXpnSy-4" target="N7u-a9GKxDevNGdXpnSy-4">
          <mxGeometry relative="1" as="geometry" />
        </mxCell>
        <mxCell id="N7u-a9GKxDevNGdXpnSy-11" style="edgeStyle=orthogonalEdgeStyle;rounded=0;orthogonalLoop=1;jettySize=auto;html=1;entryX=0.5;entryY=0;entryDx=0;entryDy=0;" edge="1" parent="1" source="N7u-a9GKxDevNGdXpnSy-7" target="q3vog-fZis95d_C_QXHH-12">
          <mxGeometry relative="1" as="geometry" />
        </mxCell>
        <mxCell id="N7u-a9GKxDevNGdXpnSy-14" style="edgeStyle=orthogonalEdgeStyle;rounded=0;orthogonalLoop=1;jettySize=auto;html=1;exitX=1;exitY=0.5;exitDx=0;exitDy=0;entryX=0.604;entryY=-0.025;entryDx=0;entryDy=0;entryPerimeter=0;" edge="1" parent="1" source="N7u-a9GKxDevNGdXpnSy-7" target="q3vog-fZis95d_C_QXHH-23">
          <mxGeometry relative="1" as="geometry" />
        </mxCell>
        <mxCell id="N7u-a9GKxDevNGdXpnSy-7" value="" style="ellipse;whiteSpace=wrap;html=1;fillColor=#d5e8d4;strokeColor=#82b366;" vertex="1" parent="1">
          <mxGeometry x="295" y="-530" width="50" height="50" as="geometry" />
        </mxCell>
        <mxCell id="N7u-a9GKxDevNGdXpnSy-50" style="edgeStyle=orthogonalEdgeStyle;rounded=0;orthogonalLoop=1;jettySize=auto;html=1;exitX=1;exitY=0.5;exitDx=0;exitDy=0;entryX=0.5;entryY=0;entryDx=0;entryDy=0;" edge="1" parent="1" source="N7u-a9GKxDevNGdXpnSy-9" target="q3vog-fZis95d_C_QXHH-22">
          <mxGeometry relative="1" as="geometry" />
        </mxCell>
        <mxCell id="N7u-a9GKxDevNGdXpnSy-76" style="edgeStyle=orthogonalEdgeStyle;rounded=0;orthogonalLoop=1;jettySize=auto;html=1;exitX=0;exitY=0;exitDx=0;exitDy=0;entryX=1;entryY=0;entryDx=0;entryDy=0;" edge="1" parent="1" source="N7u-a9GKxDevNGdXpnSy-9" target="N7u-a9GKxDevNGdXpnSy-7">
          <mxGeometry relative="1" as="geometry" />
        </mxCell>
        <mxCell id="N7u-a9GKxDevNGdXpnSy-9" value="" style="ellipse;whiteSpace=wrap;html=1;fillColor=#d5e8d4;strokeColor=#82b366;" vertex="1" parent="1">
          <mxGeometry x="490" y="-530" width="50" height="50" as="geometry" />
        </mxCell>
      </root>
    </mxGraphModel>
  </diagram>
</mxfile>
